<svg xmlns="http://www.w3.org/2000/svg" height="800" width="1200" viewBox="-6.782355 -4.72155 58.78041 28.3293"><defs><linearGradient x1="0" y1="0" x2="1" y2="0" gradientUnits="userSpaceOnUse" gradientTransform="matrix(96.132 0 0 -96.132 72.63 128.889)" spreadMethod="pad" id="a"><stop offset="0" stop-color="#54b6ae"/><stop offset=".1" stop-color="#54b6ae"/><stop offset=".3" stop-color="#3b98da"/><stop offset=".42" stop-color="#254a9a"/><stop offset=".55" stop-color="#ed1443"/><stop offset=".84" stop-color="#f25c19"/><stop offset="1" stop-color="#f25c19"/></linearGradient></defs><path d="M1.8297 16.3046c-.6272-.1902-.902-.3108-.902-.6696 0-.321.4275-.435.7937-.435.3203 0 .6647.0953.8985.2484a.2321.2321 0 00.3337-.0907l.1066-.213a.232.232 0 00-.0804-.2974c-.337-.2202-.815-.3567-1.2474-.3567-.9088 0-1.5198.4667-1.5198 1.1613 0 .9024.7623 1.1307 1.374 1.3145.6407.1919.9208.3154.9173.6967 0 .3828-.4505.519-.872.519-.404 0-.8436-.2149-1.1106-.4615-.0533-.049-.122-.0772-.1933-.0691a.2314.2314 0 00-.1726.1115l-.1227.2074a.2308.2308 0 00.0363.283c.3962.39.9927.6328 1.5572.6328.9525 0 1.5924-.4942 1.5924-1.227.0074-.931-.767-1.1659-1.3889-1.3546m4.1967-1.668a.2318.2318 0 00-.2106-.135h-.252a.2305.2305 0 00-.2105.1358l-1.776 3.9154a.2311.2311 0 00.2106.3274h.2576a.2314.2314 0 00.211-.1362l.4427-.9786h1.9932l.448.9797a.2317.2317 0 00.2103.1351h.2579a.2314.2314 0 00.2102-.328zm-1.017 2.4303l.6787-1.5046.6865 1.5046H5.0093m3.9716-2.565h-.235a.2316.2316 0 00-.2314.2314v3.9155c0 .128.1037.2314.2314.2314h.235a.2313.2313 0 00.2314-.2314v-3.9155a.2316.2316 0 00-.2314-.2314m4.8849 0h-.2297a.2314.2314 0 00-.2317.2314v2.8519l-2.1978-2.9891a.2308.2308 0 00-.1867-.0942h-.2744a.2313.2313 0 00-.2314.2314v3.9155a.231.231 0 00.2314.2314h.235a.2314.2314 0 00.2317-.2314v-2.8505l2.1922 2.988a.232.232 0 00.187.094h.2744a.2313.2313 0 00.2314-.2315v-3.9155a.2316.2316 0 00-.2314-.2314m4.0386 0h-2.8797a.2313.2313 0 00-.2311.2314v.23c0 .1274.1034.231.231.231h1.0912v3.4545c0 .128.1037.2314.2314.2314h.2346a.2315.2315 0 00.2322-.2314v-3.4544h1.0904a.2313.2313 0 00.2314-.231v-.23a.2313.2313 0 00-.2314-.2315m1.7223 2.1343H18.377a.2313.2313 0 00-.2314.2314v.1905c0 .128.1037.2314.2314.2314h1.2496a.231.231 0 00.231-.2314v-.1905a.231.231 0 00-.231-.2314m4.8652-.1404h-.213c-.0011 0-.0025.0003-.004.0003h-.695a.2316.2316 0 00-.2317.2315v.2353c0 .1277.1037.2314.2318.2314h.4678v.7158a1.6569 1.6569 0 01-.9338.2885c-.864 0-1.5667-.6773-1.5667-1.5102 0-.83.7027-1.5053 1.5667-1.5053.401 0 .7958.1478 1.0833.4057a.2314.2314 0 00.3348-.0268l.14-.1736a.232.232 0 00-.0278-.32c-.4205-.3686-.9645-.5725-1.5303-.5725-1.2489 0-2.2652.9832-2.2652 2.1925 0 1.2118 1.011 2.1971 2.2539 2.1971.562 0 1.1229-.206 1.5406-.5655a.232.232 0 00.0804-.1757v-1.417a.232.232 0 00-.2318-.2315m3.2826-1.9999c-1.2457 0-2.2592.9832-2.2592 2.1921 0 1.2122 1.0135 2.1975 2.2592 2.1975 1.2457 0 2.2595-.9853 2.2595-2.1975 0-1.209-1.0138-2.1921-2.2595-2.1921m0 3.6971c-.858 0-1.5557-.6752-1.5557-1.505 0-.8269.6978-1.4993 1.5557-1.4993.8576 0 1.5554.6724 1.5554 1.4993 0 .8298-.6978 1.505-1.5554 1.505m5.9672-1.626c.2357-.2028.3666-.5016.3666-.865 0-.7404-.5567-1.2005-1.4528-1.2005h-1.6023a.2315.2315 0 00-.231.2315v3.9158c0 .1277.1037.2314.231.2314h1.6136c1.0256 0 1.6373-.4801 1.6373-1.2841 0-.455-.2057-.817-.5624-1.029m-1.0918-.2897h-1.13v-1.083h1.13c.3464 0 .7602.0928.7602.5359 0 .363-.2557.5471-.7602.5471m-1.13.6925h1.13c.357 0 .956.0776.956.5976 0 .5126-.5196.6202-.956.6202h-1.13V16.97m5.6258-2.3334a.2318.2318 0 00-.2106-.135h-.2519a.2315.2315 0 00-.2113.1358l-1.7755 3.9154a.2308.2308 0 00.0165.2212.2302.2302 0 00.1948.1062h.2575a.2314.2314 0 00.211-.1362l.4427-.9786h1.9925l.448.9797a.2322.2322 0 00.2106.1351h.2576a.2314.2314 0 00.1947-.1065.2313.2313 0 00.0159-.2216zm-1.017 2.4303l.6787-1.5046.6865 1.5046h-1.3653m3.9713-2.565h-.2353a.2319.2319 0 00-.2318.2314v3.9155c0 .128.104.2314.2318.2314h.2353a.232.232 0 00.232-.2314v-3.9155a.2322.2322 0 00-.232-.2314m4.8849 0h-.23a.2313.2313 0 00-.2311.2314v2.8519l-2.1982-2.9891a.2303.2303 0 00-.1866-.0942h-.2744a.2316.2316 0 00-.2318.2314v3.9155c0 .128.1037.2314.2318.2314h.2353a.231.231 0 00.231-.2314v-2.8505l2.1929 2.988a.2312.2312 0 00.1863.094h.2748a.231.231 0 00.231-.2315v-3.9155a.2313.2313 0 00-.231-.2314" fill="#254a9a"/><path d="M128.549 123.501v-10.912h-2.009v12.413zm38.947-10.876h-7.903l-.056.055-6.951 6.875c-.283.28-.719.366-1.088.212a.9978.9978 0 01-.616-.923v-6.255h-2.065v15.479c0 .274-.115.539-.314.727l-5.775 5.454a.9973.9973 0 01-.687.273h-2.887c-.552 0-1.001-.449-1.001-1v-20.933h-2.049v33.606c0 .408-.244.771-.621.925-.37.152-.814.06-1.092-.223l-9.564-9.705a.9928.9928 0 01-.288-.702v-7.497l-3.916 2.924c-.356.265-.878.256-1.224-.021l-8.904-7.138a.9966.9966 0 01-.374-.781v-11.388h-2.018v6.277c0 2.204-1.518 4.547-4.329 4.547-2.812 0-4.329-2.354-4.329-4.569v-6.255l-2.041.001v4.258c0 1.726-1.188 3.559-3.39 3.559s-3.39-1.835-3.39-3.563v-4.256l-2.033-.001-.001.189c-.003.858-.006 1.957-.006 2.398 0 1.466-1.384 2.751-2.962 2.751-1.578 0-2.962-1.279-2.962-2.738v-2.598l-8.916.001c-.552 0-1-.449-1.001-1 0-.268.104-.519.293-.708.189-.189.44-.293.707-.293l9.917-.001c.267 0 .519.104.707.293.189.189.294.44.294.707v3.418c0 .37.403.919.961.919.55 0 .962-.502.962-.951 0-.257.01-3.392.01-3.392.003-.55.451-.997 1-.997l4.031.003c.551 0 1 .449 1 1v5.256c0 .541.29 1.563 1.389 1.563s1.39-1.019 1.39-1.559v-5.257c0-.552.448-1.001.999-1.001l4.041-.002c.264 0 .522.107.708.293.186.186.293.444.293.707v7.256c0 .888.487 2.569 2.329 2.569 1.708 0 2.328-1.523 2.328-2.547v-7.278c0-.551.449-1 1-1h4.019c.552 0 1 .449 1 1v11.909l.072.058 7.853 6.296 4.493-3.355v-14.908c0-.551.449-1 1-1h4.011c.551 0 1 .449 1 1v12.415c0 .313-.151.613-.402.801l-3.608 2.695v8.581l.055.056 7.508 7.619v-32.167c0-.551.449-1 1-1h4.051c.551 0 1 .449 1 1v20.934h1.489l.055-.052 5.118-4.833v-16.049c0-.551.449-1 1-1h4.066c.552 0 1.001.449 1.001 1v4.86l5.595-5.534a.9979.9979 0 01.703-.289h8.315c.552 0 1.001.449 1.001 1 0 .552-.449 1-1.001 1" fill="url(#a)" transform="matrix(.35278 0 0 -.35278 -19.931 51.9263)"/></svg>