<svg width="16" height="14" viewBox="0 0 16 14" xmlns="http://www.w3.org/2000/svg">
  <path d="M1.45455 12.5849V3.17425C1.4545 3.029 1.5004 2.88726 1.58601 2.76827C1.67163 2.64928 1.7928 2.55881 1.93309 2.50913L8.96655 0.0213332C9.02149 0.00187929 9.08044 -0.00439889 9.13841 0.00303094C9.19637 0.0104608 9.25164 0.0313796 9.29953 0.0640137C9.34742 0.0966477 9.38651 0.140035 9.4135 0.190497C9.44048 0.240958 9.45456 0.297006 9.45455 0.353889V3.85846L14.048 5.34789C14.1929 5.39483 14.3189 5.48495 14.4082 5.60548C14.4975 5.726 14.5455 5.8708 14.5455 6.01937V12.5849H16V14H0V12.5849H1.45455ZM2.90909 12.5849H8V1.86879L2.90909 3.67025V12.5849ZM13.0909 12.5849V6.52952L9.45455 5.35001V12.5849H13.0909Z"/>
</svg>
