<svg width="14" height="16" viewBox="0 0 14 16" xmlns="http://www.w3.org/2000/svg">
  <path d="M12.4444 1.6H11.6667V0H10.1111V1.6H3.88889V0H2.33333V1.6H1.55556C0.692222 1.6 0.00777777 2.32 0.00777777 3.2L0 14.4C0 15.28 0.692222 16 1.55556 16H12.4444C13.3 16 14 15.28 14 14.4V3.2C14 2.32 13.3 1.6 12.4444 1.6ZM12.4444 14.4H1.55556V6.4H12.4444V14.4ZM12.4444 4.8H1.55556V3.2H12.4444V4.8ZM4.66667 9.6H3.11111V8H4.66667V9.6ZM7.77778 9.6H6.22222V8H7.77778V9.6ZM10.8889 9.6H9.33333V8H10.8889V9.6ZM4.66667 12.8H3.11111V11.2H4.66667V12.8ZM7.77778 12.8H6.22222V11.2H7.77778V12.8ZM10.8889 12.8H9.33333V11.2H10.8889V12.8Z"/>
</svg>
