<svg width="16" height="16" viewBox="0 0 16 16" xmlns="http://www.w3.org/2000/svg">
  <path d="M14.4238 16L9.00405 10.43L10.2348 9.16505L15.6545 14.7351L14.4238 16ZM1.87854 16L0.647773 14.7351L6.90958 8.29958L4.59919 5.9251L4.10256 6.43551L3.1525 5.45908V7.34535L2.63428 7.87795L0 5.1706L0.518219 4.638H2.37517L1.33873 3.57282L4.16734 0.665742C4.41206 0.414239 4.67836 0.244106 4.96626 0.15534C5.25416 0.0665744 5.57085 0.0221915 5.91633 0.0221915C6.26181 0.0221915 6.5785 0.0850672 6.8664 0.210818C7.1543 0.33657 7.4206 0.525196 7.66532 0.776699L5.35493 3.15118L6.39136 4.21637L5.87314 4.74896L8.11876 7.05687L10.753 4.34951C10.6379 4.15719 10.5479 3.93528 10.4831 3.68377C10.4184 3.43227 10.386 3.16597 10.386 2.88488C10.386 2.10079 10.6631 1.42395 11.2173 0.854369C11.7715 0.28479 12.43 0 13.193 0C13.4089 0 13.5924 0.0221914 13.7436 0.0665742C13.8947 0.110957 14.0207 0.170134 14.1215 0.244105L12.2861 2.13037L13.9055 3.79473L15.7409 1.90846C15.8129 2.02681 15.874 2.17106 15.9244 2.34119C15.9748 2.51133 16 2.70735 16 2.92927C16 3.71336 15.7229 4.3902 15.1687 4.95978C14.6145 5.52936 13.9559 5.81415 13.193 5.81415C12.9339 5.81415 12.7108 5.79565 12.5236 5.75867C12.3365 5.72168 12.1637 5.6662 12.0054 5.59223L1.87854 16Z"/>
</svg>
