<svg width="16" height="16" viewBox="0 0 16 16" xmlns="http://www.w3.org/2000/svg">
  <path d="M6.112 4.512C6.296 4.112 6.4 3.672 6.4 3.2C6.4 1.432 4.968 0 3.2 0C1.432 0 0 1.432 0 3.2C0 4.968 1.432 6.4 3.2 6.4C3.672 6.4 4.112 6.296 4.512 6.112L6.4 8L4.512 9.888C4.112 9.704 3.672 9.6 3.2 9.6C1.432 9.6 0 11.032 0 12.8C0 14.568 1.432 16 3.2 16C4.968 16 6.4 14.568 6.4 12.8C6.4 12.328 6.296 11.888 6.112 11.488L8 9.6L13.6 15.2H16V14.4L6.112 4.512ZM3.2 4.8C2.32 4.8 1.6 4.088 1.6 3.2C1.6 2.312 2.32 1.6 3.2 1.6C4.08 1.6 4.8 2.312 4.8 3.2C4.8 4.088 4.08 4.8 3.2 4.8ZM3.2 14.4C2.32 14.4 1.6 13.688 1.6 12.8C1.6 11.912 2.32 11.2 3.2 11.2C4.08 11.2 4.8 11.912 4.8 12.8C4.8 13.688 4.08 14.4 3.2 14.4ZM8 8.4C7.776 8.4 7.6 8.224 7.6 8C7.6 7.776 7.776 7.6 8 7.6C8.224 7.6 8.4 7.776 8.4 8C8.4 8.224 8.224 8.4 8 8.4ZM13.6 0.8L8.8 5.6L10.4 7.2L16 1.6V0.8H13.6Z"/>
</svg>
