<svg width="16" height="16" viewBox="0 0 16 16" xmlns="http://www.w3.org/2000/svg">
  <path d="M0 8.04815C0.0009308 12.0079 2.86262 15.3794 6.74937 16V10.3744H4.71984V8.04815H6.75177V6.27731C6.66093 5.43821 6.94578 4.60193 7.52905 3.99529C8.11232 3.38865 8.93357 3.07452 9.77006 3.1381C10.3705 3.14786 10.9694 3.20166 11.562 3.29909V5.2784H10.5508C10.2027 5.23252 9.85274 5.3482 9.59948 5.59286C9.34622 5.83751 9.2171 6.18465 9.24848 6.5365V8.04815H11.4652L11.1108 10.3752H9.24848V16C13.4519 15.3316 16.3995 11.4689 15.9559 7.21028C15.5122 2.95166 11.8326 -0.212053 7.5828 0.0111118C3.33297 0.234277 0.000675558 3.76619 0 8.04815Z"/>
</svg>
