<svg width="16" height="14" viewBox="0 0 16 14" xmlns="http://www.w3.org/2000/svg">
  <path d="M1.2973 5.7C0.579459 5.7 0 6.28067 0 7C0 7.71933 0.579459 8.3 1.2973 8.3C2.01514 8.3 2.59459 7.71933 2.59459 7C2.59459 6.28067 2.01514 5.7 1.2973 5.7ZM1.2973 0.5C0.579459 0.5 0 1.08067 0 1.8C0 2.51933 0.579459 3.1 1.2973 3.1C2.01514 3.1 2.59459 2.51933 2.59459 1.8C2.59459 1.08067 2.01514 0.5 1.2973 0.5ZM1.2973 10.9C0.579459 10.9 0 11.4893 0 12.2C0 12.9107 0.588108 13.5 1.2973 13.5C2.00649 13.5 2.59459 12.9107 2.59459 12.2C2.59459 11.4893 2.01514 10.9 1.2973 10.9ZM3.89189 13.0667H16V11.3333H3.89189V13.0667ZM3.89189 7.86667H16V6.13333H3.89189V7.86667ZM3.89189 0.933333V2.66667H16V0.933333H3.89189Z"/>
</svg>
