<svg width="16" height="16" viewBox="0 0 16 16" xmlns="http://www.w3.org/2000/svg">
  <path d="M8 16C8.88265 16 9.60482 15.2615 9.60482 14.359H6.39519C6.39519 15.2615 7.11735 16 8 16ZM12.8144 11.0769V6.97436C12.8144 4.45538 11.5065 2.34667 9.20361 1.78872V1.23077C9.20361 0.549744 8.666 0 8 0C7.334 0 6.79639 0.549744 6.79639 1.23077V1.78872C4.5015 2.34667 3.18556 4.44718 3.18556 6.97436V11.0769L1.58074 12.7179V13.5385H14.4193V12.7179L12.8144 11.0769ZM11.2096 11.8974H4.79037V6.97436C4.79037 4.93949 6.00201 3.28205 8 3.28205C9.99799 3.28205 11.2096 4.93949 11.2096 6.97436V11.8974ZM4.45336 1.29641L3.30592 0.123077C1.38014 1.62462 0.112337 3.93846 0 6.5641H1.60481C1.72518 4.38974 2.81645 2.48615 4.45336 1.29641ZM14.3952 6.5641H16C15.8796 3.93846 14.6118 1.62462 12.6941 0.123077L11.5547 1.29641C13.1755 2.48615 14.2748 4.38974 14.3952 6.5641Z"/>
</svg>
