<svg width="16" height="16" viewBox="0 0 16 16" xmlns="http://www.w3.org/2000/svg">
  <path d="M8 0C3.584 0 0 3.584 0 8C0 12.416 3.584 16 8 16C12.416 16 16 12.416 16 8C16 3.584 12.416 0 8 0ZM8 14.4C4.464 14.4 1.6 11.536 1.6 8C1.6 4.464 4.464 1.6 8 1.6C11.536 1.6 14.4 4.464 14.4 8C14.4 11.536 11.536 14.4 8 14.4Z"/>
  <path d="M3.9998 9.20005C4.66255 9.20005 5.1998 8.66279 5.1998 8.00005C5.1998 7.33731 4.66255 6.80005 3.9998 6.80005C3.33706 6.80005 2.7998 7.33731 2.7998 8.00005C2.7998 8.66279 3.33706 9.20005 3.9998 9.20005Z"/>
  <path d="M7.9998 9.20005C8.66255 9.20005 9.1998 8.66279 9.1998 8.00005C9.1998 7.33731 8.66255 6.80005 7.9998 6.80005C7.33706 6.80005 6.7998 7.33731 6.7998 8.00005C6.7998 8.66279 7.33706 9.20005 7.9998 9.20005Z"/>
  <path d="M11.9998 9.20005C12.6625 9.20005 13.1998 8.66279 13.1998 8.00005C13.1998 7.33731 12.6625 6.80005 11.9998 6.80005C11.3371 6.80005 10.7998 7.33731 10.7998 8.00005C10.7998 8.66279 11.3371 9.20005 11.9998 9.20005Z"/>
</svg>
