<svg width="12" height="16" viewBox="0 0 12 16" xmlns="http://www.w3.org/2000/svg">
  <path d="M6 16C5.54667 16 5.16333 15.8466 4.85 15.5398C4.53667 15.233 4.38 14.8576 4.38 14.4137H7.62C7.62 14.8576 7.46333 15.233 7.15 15.5398C6.83667 15.8466 6.45333 16 6 16ZM2.76 13.1995V12.0245H9.24V13.1995H2.76ZM2.86 10.8299C1.98 10.2685 1.28333 9.56671 0.77 8.7246C0.256667 7.8825 0 6.93268 0 5.87515C0 4.28233 0.593333 2.90494 1.78 1.74296C2.96667 0.580987 4.37333 0 6 0C7.62667 0 9.03333 0.580987 10.22 1.74296C11.4067 2.90494 12 4.28233 12 5.87515C12 6.93268 11.7467 7.8825 11.24 8.7246C10.7333 9.56671 10.0333 10.2685 9.14 10.8299H2.86Z"/>
</svg>
