<svg width="12" height="16" viewBox="0 0 12 16" xmlns="http://www.w3.org/2000/svg">
  <path d="M6 0C2.68286 0 0 2.504 0 5.6C0 9.8 6 16 6 16C6 16 12 9.8 12 5.6C12 2.504 9.31714 0 6 0ZM1.71429 5.6C1.71429 3.392 3.63429 1.6 6 1.6C8.36571 1.6 10.2857 3.392 10.2857 5.6C10.2857 7.904 7.81714 11.352 6 13.504C4.21714 11.368 1.71429 7.88 1.71429 5.6Z"/>
  <path d="M5.99979 7.6001C7.18326 7.6001 8.14265 6.70467 8.14265 5.6001C8.14265 4.49553 7.18326 3.6001 5.99979 3.6001C4.81632 3.6001 3.85693 4.49553 3.85693 5.6001C3.85693 6.70467 4.81632 7.6001 5.99979 7.6001Z"/>
</svg>
