<svg width="16" height="12" viewBox="0 0 16 12" xmlns="http://www.w3.org/2000/svg">
  <path d="M13.8182 3H11.6364V0H1.45455C0.654545 0 0 0.675 0 1.5V9.75H1.45455C1.45455 10.995 2.42909 12 3.63636 12C4.84364 12 5.81818 10.995 5.81818 9.75H10.1818C10.1818 10.995 11.1564 12 12.3636 12C13.5709 12 14.5455 10.995 14.5455 9.75H16V6L13.8182 3ZM13.4545 4.125L14.88 6H11.6364V4.125H13.4545ZM3.63636 10.5C3.23636 10.5 2.90909 10.1625 2.90909 9.75C2.90909 9.3375 3.23636 9 3.63636 9C4.03636 9 4.36364 9.3375 4.36364 9.75C4.36364 10.1625 4.03636 10.5 3.63636 10.5ZM5.25091 8.25C4.85091 7.7925 4.28364 7.5 3.63636 7.5C2.98909 7.5 2.42182 7.7925 2.02182 8.25H1.45455V1.5H10.1818V8.25H5.25091ZM12.3636 10.5C11.9636 10.5 11.6364 10.1625 11.6364 9.75C11.6364 9.3375 11.9636 9 12.3636 9C12.7636 9 13.0909 9.3375 13.0909 9.75C13.0909 10.1625 12.7636 10.5 12.3636 10.5Z"/>
</svg>
