<svg width="14" height="16" viewBox="0 0 14 16" xmlns="http://www.w3.org/2000/svg">
  <path d="M4.50467 1.3303V0H9.47663V1.3303H4.50467ZM6.31776 9.69476H7.66355V5.48519H6.31776V9.69476ZM6.99065 16C6.01869 16 5.10903 15.8208 4.26168 15.4624C3.41433 15.104 2.67601 14.615 2.04673 13.9954C1.41745 13.3759 0.919003 12.653 0.551402 11.8269C0.183801 11.0008 0 10.12 0 9.18451C0 8.2369 0.183801 7.35004 0.551402 6.52392C0.919003 5.6978 1.41745 4.97494 2.04673 4.35535C2.67601 3.73576 3.41433 3.24677 4.26168 2.88838C5.10903 2.52999 6.01869 2.3508 6.99065 2.3508C7.83801 2.3508 8.63863 2.48747 9.39252 2.76082C10.1464 3.03417 10.8162 3.41989 11.4019 3.918L12.4486 2.89749L13.4206 3.82688L12.3738 4.84738C12.8224 5.34548 13.2056 5.94989 13.5234 6.66059C13.8411 7.3713 14 8.2126 14 9.18451C14 10.12 13.8162 11.0038 13.4486 11.836C13.081 12.6682 12.5794 13.391 11.9439 14.0046C11.3084 14.6181 10.5639 15.104 9.71028 15.4624C8.8567 15.8208 7.95016 16 6.99065 16ZM6.99065 14.5421C8.52337 14.5421 9.82555 14.0228 10.8972 12.9841C11.9688 11.9453 12.5047 10.6788 12.5047 9.18451C12.5047 7.6902 11.9688 6.42065 10.8972 5.37585C9.82555 4.33106 8.52337 3.80866 6.99065 3.80866C5.45794 3.80866 4.15576 4.32802 3.08411 5.36674C2.01246 6.40547 1.47664 7.67806 1.47664 9.18451C1.47664 10.6788 2.01246 11.9453 3.08411 12.9841C4.15576 14.0228 5.45794 14.5421 6.99065 14.5421Z"/>
</svg>
