<svg width="57" height="64" viewBox="0 0 57 64" xmlns="http://www.w3.org/2000/svg">
  <path d="M25.025 42.7181L44.5288 24.7518L40.5945 21.2048L25.2762 35.3157L16.738 27.5277L12.7201 31.2289L25.025 42.7181ZM28.7081 64C20.5607 62.098 13.8641 57.7671 8.61846 51.0072C3.37282 44.2474 0.75 36.8321 0.75 28.7614V9.63855L28.7081 0L56.75 9.63855V28.7614C56.75 36.8321 54.1132 44.2474 48.8397 51.0072C43.5661 57.7671 36.8556 62.098 28.7081 64ZM28.7081 57.6771C34.9583 55.6209 40.0784 51.9454 44.0684 46.6506C48.0584 41.3558 50.0534 35.3928 50.0534 28.7614V13.9566L28.7081 6.55422L7.36285 13.9566V28.7614C7.36285 35.3928 9.35787 41.3558 13.3479 46.6506C17.3379 51.9454 22.458 55.6209 28.7081 57.6771Z"/>
</svg>
