<svg width="16" height="16" viewBox="0 0 16 16" xmlns="http://www.w3.org/2000/svg">
  <path d="M15.7809 13.087L9.15068 6.4786C9.82977 4.77556 9.47927 2.76684 8.09919 1.38403C6.41972 -0.289903 3.80558 -0.44274 1.94356 0.910961L4.74755 3.71298L3.71066 4.73917L0.913975 1.95171C-0.444205 3.80031 -0.290862 6.4131 1.38861 8.07976C2.74679 9.43346 4.72564 9.79008 6.41972 9.15689L13.0719 15.7871C13.3567 16.071 13.8167 16.071 14.1015 15.7871L15.7809 14.1132C16.073 13.8366 16.073 13.3781 15.7809 13.087ZM13.5903 14.2515L6.68259 7.36652C6.23717 7.69402 5.74063 7.89053 5.22218 7.96331C4.2291 8.10887 3.18491 7.81047 2.4255 7.05356C1.7318 6.36943 1.41051 5.45241 1.46163 4.54994L3.71796 6.79883L6.81403 3.71298L4.5577 1.46409C5.46315 1.41314 6.37591 1.73337 7.0696 2.4175C7.85822 3.20352 8.1576 4.28794 7.97505 5.29957C7.88743 5.81631 7.66837 6.29665 7.33247 6.72605L14.2329 13.6037L13.5903 14.2515Z"/>
</svg>
