<svg width="12" height="16" viewBox="0 0 12 16" xmlns="http://www.w3.org/2000/svg">
  <path d="M7.81714 6.64L6 8.52444L4.17429 6.64L2.96571 7.89333L4.79143 9.77778L2.97429 11.6622L4.18286 12.9156L6 11.0311L7.81714 12.9156L9.02571 11.6622L7.20857 9.77778L9.02571 7.89333L7.81714 6.64ZM9 0.888889L8.14286 0H3.85714L3 0.888889H0V2.66667H12V0.888889H9ZM0.857143 14.2222C0.857143 15.2 1.62857 16 2.57143 16H9.42857C10.3714 16 11.1429 15.2 11.1429 14.2222V3.55556H0.857143V14.2222ZM2.57143 5.33333H9.42857V14.2222H2.57143V5.33333Z"/>
</svg>
