<svg xmlns="http://www.w3.org/2000/svg" xmlns:xlink="http://www.w3.org/1999/xlink" viewBox="0,0,256,256" width="24px" height="24px" fill-rule="nonzero"><g fill="#221f1f" fill-rule="nonzero" stroke="none" stroke-width="1" stroke-linecap="butt" stroke-linejoin="miter" stroke-miterlimit="10" stroke-dasharray="" stroke-dashoffset="0" font-family="none" font-weight="none" font-size="none" text-anchor="none" style="mix-blend-mode: normal"><path d="M0,256v-256h256v256z" id="bgRectangle"></path></g><g fill="#435eaa" fill-rule="nonzero" stroke="none" stroke-width="1" stroke-linecap="butt" stroke-linejoin="miter" stroke-miterlimit="10" stroke-dasharray="" stroke-dashoffset="0" font-family="none" font-weight="none" font-size="none" text-anchor="none" style="mix-blend-mode: normal"><g transform="scale(10.66667,10.66667)"><path d="M21.80078,0h-19.60156c-1.19922,0 -2.19922,1 -2.19922,2.19922v19.60156c0,1.19922 1,2.19922 2.19922,2.19922h9.80078v-10h-3v-3h3v-3c0,-2.5 1,-4 4,-4h3v3h-1.30078c-0.89844,0 -1.69922,0.80078 -1.69922,1.69922v2.30078h4l-0.5,3h-3.5v10h5.80078c1.19922,0 2.19922,-1 2.19922,-2.19922v-19.60156c0,-1.19922 -1,-2.19922 -2.19922,-2.19922z"></path></g></g></svg>