<svg width="17" height="16" viewBox="0 0 17 16" xmlns="http://www.w3.org/2000/svg">
  <path d="M16.5 8C16.5 9.60748 16.5 10.6916 16.4626 11.2897C16.3879 12.7477 15.9766 13.8692 15.1542 14.6542C14.3318 15.4393 13.2477 15.8878 11.7897 15.9626C11.1916 16 10.0701 16 8.5 16C6.89252 16 5.80841 16 5.21028 15.9626C3.75234 15.8878 2.63084 15.4766 1.84579 14.6542C1.06075 13.8692 0.61215 12.7477 0.537383 11.2897C0.5 10.6916 0.5 9.57009 0.5 8C0.5 6.42991 0.5 5.30841 0.537383 4.71028C0.61215 3.25234 1.02336 2.13084 1.84579 1.34579C2.63084 0.560748 3.75234 0.11215 5.21028 0.0373831C5.80841 -3.58559e-08 6.92991 0 8.5 0C10.1075 0 11.1916 -3.58559e-08 11.7897 0.0373831C13.2477 0.11215 14.3692 0.523364 15.1542 1.34579C15.9393 2.16822 16.3879 3.25234 16.4626 4.71028C16.4626 5.30841 16.5 6.39252 16.5 8ZM9.28505 1.42056C8.79907 1.42056 8.53738 1.42056 8.5 1.42056C8.46262 1.42056 8.20093 1.42056 7.71495 1.42056C7.22897 1.42056 6.85514 1.42056 6.63084 1.42056C6.36916 1.42056 6.03271 1.42056 5.6215 1.45794C5.21028 1.45794 4.83645 1.49533 4.53738 1.57009C4.23832 1.60748 3.97664 1.68224 3.78972 1.75701C3.45327 1.90654 3.15421 2.09346 2.85514 2.35514C2.59346 2.61682 2.40654 2.91589 2.25701 3.28972C2.18224 3.47664 2.10748 3.73832 2.07009 4.03738C2.03271 4.33645 1.99533 4.6729 1.95794 5.1215C1.95794 5.53271 1.92056 5.86916 1.92056 6.13084C1.92056 6.39252 1.92056 6.76636 1.92056 7.21495C1.92056 7.70094 1.92056 7.96262 1.92056 8C1.92056 8.03738 1.92056 8.29907 1.92056 8.78505C1.92056 9.27103 1.92056 9.64486 1.92056 9.86916C1.92056 10.1308 1.92056 10.4673 1.95794 10.8785C1.95794 11.2897 1.99533 11.6636 2.07009 11.9626C2.14486 12.2617 2.18224 12.5234 2.25701 12.7103C2.40654 13.0467 2.59346 13.3458 2.85514 13.6449C3.11682 13.9065 3.41589 14.0935 3.78972 14.243C3.97664 14.3178 4.23832 14.3925 4.53738 14.4299C4.83645 14.4673 5.1729 14.5047 5.6215 14.5421C6.07009 14.5794 6.36916 14.5794 6.63084 14.5794C6.89252 14.5794 7.26636 14.5794 7.71495 14.5794C8.20093 14.5794 8.46262 14.5794 8.5 14.5794C8.53738 14.5794 8.79907 14.5794 9.28505 14.5794C9.77103 14.5794 10.1449 14.5794 10.3692 14.5794C10.6308 14.5794 10.9673 14.5794 11.3785 14.5421C11.7897 14.5421 12.1636 14.5047 12.4626 14.4299C12.7617 14.3925 13.0234 14.3178 13.2103 14.243C13.5467 14.0935 13.8458 13.9065 14.1449 13.6449C14.4065 13.3832 14.5935 13.0841 14.743 12.7103C14.8178 12.5234 14.8925 12.2617 14.9299 11.9626C14.9673 11.6636 15.0047 11.3271 15.0421 10.8785C15.0421 10.4673 15.0794 10.1308 15.0794 9.86916C15.0794 9.60748 15.0794 9.23365 15.0794 8.78505C15.0794 8.29907 15.0794 8.03738 15.0794 8C15.0794 7.96262 15.0794 7.70094 15.0794 7.21495C15.0794 6.72897 15.0794 6.35514 15.0794 6.13084C15.0794 5.86916 15.0794 5.53271 15.0421 5.1215C15.0421 4.71028 15.0047 4.33645 14.9299 4.03738C14.8925 3.73832 14.8178 3.47664 14.743 3.28972C14.5935 2.95327 14.4065 2.65421 14.1449 2.35514C13.8832 2.09346 13.5841 1.90654 13.2103 1.75701C13.0234 1.68224 12.7617 1.60748 12.4626 1.57009C12.1636 1.53271 11.8271 1.49533 11.3785 1.45794C10.9673 1.45794 10.6308 1.42056 10.3692 1.42056C10.1449 1.42056 9.77103 1.42056 9.28505 1.42056ZM11.3785 5.08411C12.1636 5.86916 12.5748 6.84112 12.5748 8C12.5748 9.15888 12.1636 10.0935 11.3785 10.9159C10.5935 11.7009 9.6215 12.1121 8.46262 12.1121C7.30374 12.1121 6.36916 11.7009 5.54673 10.9159C4.76168 10.1308 4.35047 9.15888 4.35047 8C4.35047 6.84112 4.76168 5.90654 5.54673 5.08411C6.33178 4.29907 7.30374 3.88785 8.46262 3.88785C9.6215 3.88785 10.5935 4.26168 11.3785 5.08411ZM10.3692 9.86916C10.8925 9.34579 11.1542 8.71028 11.1542 8C11.1542 7.28972 10.8925 6.61682 10.3692 6.09346C9.8458 5.57009 9.21028 5.30841 8.46262 5.30841C7.71495 5.30841 7.07944 5.57009 6.55608 6.09346C6.03271 6.61682 5.77103 7.25234 5.77103 8C5.77103 8.74766 6.03271 9.38318 6.55608 9.86916C7.07944 10.3925 7.71495 10.6542 8.46262 10.6542C9.21028 10.6542 9.8458 10.3925 10.3692 9.86916ZM13.4346 3.02804C13.6215 3.21495 13.7336 3.43925 13.7336 3.70093C13.7336 3.96262 13.6215 4.18692 13.4346 4.37383C13.2477 4.56075 13.0234 4.6729 12.7617 4.6729C12.5 4.6729 12.2757 4.56075 12.0888 4.37383C11.9019 4.18692 11.7897 3.96262 11.7897 3.70093C11.7897 3.43925 11.9019 3.21495 12.0888 3.02804C12.2757 2.84112 12.5 2.72897 12.7617 2.72897C13.0234 2.72897 13.2477 2.84112 13.4346 3.02804Z"/>
</svg>
