<svg width="14" height="16" viewBox="0 0 14 16" xmlns="http://www.w3.org/2000/svg">
  <path d="M5.67332 16H1.37905C1.00665 16 0.683707 15.8458 0.410224 15.5375C0.136741 15.2292 0 14.8585 0 14.4256V3.16851C0 2.74867 0.122194 2.38458 0.366583 2.07626C0.610972 1.76794 0.843724 1.61378 1.06484 1.61378H4.31172C4.4281 1.14145 4.66085 0.754408 5.00997 0.452644C5.3591 0.150881 5.7606 0 6.21446 0C6.65669 0 7.05528 0.150881 7.41022 0.452644C7.76517 0.754408 8.00083 1.14145 8.11721 1.61378H11.3641C11.7481 1.61378 12.0769 1.76794 12.3504 2.07626C12.6239 2.38458 12.7606 2.74867 12.7606 3.16851V7.04551H11.3641V3.16851H9.51372V5.72694H3.22943V3.16851H1.37905V14.4256H5.67332V16ZM8.97257 15.3506L6.07481 12.0836L7.01746 11.0012L8.97257 13.2054L13.0574 8.60025L14 9.68266L8.97257 15.3506ZM6.52868 2.97171C6.72652 2.97171 6.89235 2.89627 7.02618 2.74539C7.16002 2.59451 7.22693 2.40754 7.22693 2.1845C7.22693 1.96146 7.16002 1.7745 7.02618 1.62362C6.89235 1.47273 6.72652 1.39729 6.52868 1.39729C6.33084 1.39729 6.165 1.47273 6.03117 1.62362C5.89734 1.7745 5.83042 1.96146 5.83042 2.1845C5.83042 2.40754 5.89734 2.59451 6.03117 2.74539C6.165 2.89627 6.33084 2.97171 6.52868 2.97171Z"/>
</svg>
