<svg width="16" height="16" viewBox="0 0 16 16" xmlns="http://www.w3.org/2000/svg">
  <path d="M15.0457 5.13883L11.8463 6.58126L9.77568 4.58074V3.37872L11.8463 1.3782L15.0457 2.82063C15.3834 2.97518 15.7744 2.82922 15.9344 2.51154C16.0943 2.18528 15.9432 1.8075 15.6144 1.65295L12.1307 0.0817298C11.793 -0.0728165 11.3931 -0.00412924 11.1265 0.253448L9.58016 1.7474C9.4202 1.54133 9.17136 1.40396 8.88698 1.40396C8.3982 1.40396 7.99828 1.79032 7.99828 2.26255V3.12114H5.17222C4.79897 2.12518 3.8214 1.40396 2.66609 1.40396C1.19086 1.40396 0 2.55447 0 3.97973C0 4.92418 0.533219 5.73984 1.31527 6.19489L3.62589 13.4242H2.66609C1.68853 13.4242 0.888698 14.197 0.888698 15.1414V16H12.4418V15.1414C12.4418 14.197 11.6419 13.4242 10.6644 13.4242H9.22468L4.80786 5.49944C4.95893 5.29338 5.08335 5.07873 5.17222 4.83832H7.99828V5.69691C7.99828 6.16914 8.3982 6.5555 8.88698 6.5555C9.17136 6.5555 9.4202 6.41813 9.58016 6.21207L11.1265 7.70601C11.3931 7.96359 11.793 8.03228 12.1307 7.87773L15.6144 6.30651C15.9521 6.15197 16.0943 5.77419 15.9344 5.44792C15.7744 5.13024 15.3834 4.98428 15.0457 5.13883ZM2.66609 4.83832C2.17731 4.83832 1.7774 4.45196 1.7774 3.97973C1.7774 3.50751 2.17731 3.12114 2.66609 3.12114C3.15488 3.12114 3.55479 3.50751 3.55479 3.97973C3.55479 4.45196 3.15488 4.83832 2.66609 4.83832ZM7.20734 13.4242H5.48327L3.29707 6.5555H3.38594L7.20734 13.4242Z"/>
</svg>
