<svg width="64" height="64" viewBox="0 0 64 64" xmlns="http://www.w3.org/2000/svg">
  <path d="M12.8005 41.5991C10.1444 41.5991 7.74431 42.6871 6.01624 44.4152C2.24009 48.1914 0 64 0 64C0 64 15.8086 61.7599 19.5848 57.9838C21.3129 56.2557 22.4009 53.8556 22.4009 51.1995C22.4009 45.8873 18.1127 41.5991 12.8005 41.5991ZM15.0726 53.4716C14.1766 54.3676 8.12832 55.9037 8.12832 55.9037C8.12832 55.9037 9.63239 49.8874 10.5604 48.9594C11.1044 48.3514 11.9045 47.9994 12.8005 47.9994C14.5606 47.9994 16.0006 49.4394 16.0006 51.1995C16.0006 52.0955 15.6486 52.8956 15.0726 53.4716ZM49.346 37.2789C69.6988 16.9261 62.9145 1.08548 62.9145 1.08548C62.9145 1.08548 47.0739 -5.69879 26.7211 14.654L18.7528 13.054C16.6727 12.6379 14.4966 13.31 12.9605 14.814L0 27.8065L16.0006 34.6548L29.3452 47.9994L36.1934 64L49.154 51.0395C50.658 49.5354 51.3301 47.3593 50.914 45.2472L49.346 37.2789ZM17.3127 28.2546L11.2004 25.6305L17.5047 19.3262L22.1129 20.2542C20.2888 22.9104 18.6567 25.6945 17.3127 28.2546ZM38.3695 52.7996L35.7454 46.6873C38.3055 45.3433 41.0896 43.7112 43.7137 41.8871L44.6418 46.4953L38.3695 52.7996ZM44.8018 32.7667C40.5776 36.9909 33.9854 40.4471 31.8733 41.5031L22.4969 32.1267C23.5209 30.0466 26.9771 23.4544 31.2332 19.1982C46.2098 4.22161 57.5703 6.4297 57.5703 6.4297C57.5703 6.4297 59.7784 17.7901 44.8018 32.7667ZM41.6017 28.7986C45.1218 28.7986 48.0019 25.9185 48.0019 22.3983C48.0019 18.8782 45.1218 15.9981 41.6017 15.9981C38.0815 15.9981 35.2014 18.8782 35.2014 22.3983C35.2014 25.9185 38.0815 28.7986 41.6017 28.7986Z"/>
</svg>
