<svg width="16" height="16" viewBox="0 0 16 16" xmlns="http://www.w3.org/2000/svg">
  <path d="M12.4444 0H1.77778C0.791111 0 0 0.8 0 1.77778V14.2222C0 15.2 0.791111 16 1.77778 16H14.2222C15.2 16 16 15.2 16 14.2222V3.55556L12.4444 0ZM14.2222 14.2222H1.77778V1.77778H11.7067L14.2222 4.29333V14.2222ZM8 8C6.52444 8 5.33333 9.19111 5.33333 10.6667C5.33333 12.1422 6.52444 13.3333 8 13.3333C9.47556 13.3333 10.6667 12.1422 10.6667 10.6667C10.6667 9.19111 9.47556 8 8 8ZM2.66667 2.66667H10.6667V6.22222H2.66667V2.66667Z"/>
</svg>
