<svg width="16" height="16" viewBox="0 0 16 16" xmlns="http://www.w3.org/2000/svg">
  <path d="M1.33792 16C0.747334 16 0.344005 15.6889 0.127936 15.0667C-0.0881335 14.4444 -0.0305151 13.9407 0.300791 13.5556L5.65931 7.33333V1.33333H4.53575C4.36289 1.33333 4.21164 1.26667 4.082 1.13333C3.95236 1 3.88754 0.844444 3.88754 0.666667C3.88754 0.488889 3.95236 0.333333 4.082 0.2C4.21164 0.0666666 4.36289 0 4.53575 0H11.45C11.6228 0 11.7741 0.0666666 11.9037 0.2C12.0334 0.333333 12.0982 0.488889 12.0982 0.666667C12.0982 0.844444 12.0334 1 11.9037 1.13333C11.7741 1.26667 11.6228 1.33333 11.45 1.33333H10.3264V7.33333L15.6849 13.5556C16.0306 13.9556 16.0919 14.463 15.8686 15.0778C15.6453 15.6926 15.2384 16 14.6478 16H1.33792ZM1.07864 14.6667H14.9071L9.02999 7.82222V1.33333H6.95572V7.82222L1.07864 14.6667Z"/>
</svg>
