<svg width="16" height="16" viewBox="0 0 16 16" xmlns="http://www.w3.org/2000/svg">
  <path d="M2.20413 13.7636C1.50892 13.0574 0.967765 12.2413 0.580659 11.3154C0.193553 10.3894 0 9.43992 0 8.4669C0 7.32124 0.201453 6.27366 0.604359 5.32418C1.00727 4.37469 1.61162 3.49975 2.41744 2.69936C2.97045 2.15007 3.65776 1.6871 4.47937 1.31045C5.30098 0.933791 6.26875 0.639529 7.38266 0.427661C8.49658 0.215792 9.75665 0.0823933 11.1629 0.0274644C12.5691 -0.0274645 14.1333 6.31418e-08 15.8555 0.109858C15.9819 1.80481 16.0254 3.35459 15.9859 4.7592C15.9464 6.16381 15.82 7.42325 15.6067 8.53752C15.3934 9.65179 15.0932 10.6287 14.7061 11.4684C14.319 12.308 13.841 13.0103 13.2722 13.5753C12.4664 14.3757 11.5974 14.9799 10.6652 15.3879C9.73295 15.796 8.73753 16 7.67892 16C6.5887 16 5.58933 15.8156 4.68082 15.4468C3.77231 15.078 2.94674 14.5169 2.20413 13.7636ZM4.64527 13.7636C5.04028 14.0304 5.49848 14.2344 6.01989 14.3757C6.5413 14.5169 7.09431 14.5875 7.67892 14.5875C8.51633 14.5875 9.33004 14.4149 10.1201 14.0696C10.9101 13.7244 11.629 13.2222 12.2768 12.563C12.7034 12.1393 13.0668 11.5861 13.367 10.9034C13.6672 10.2207 13.9121 9.41246 14.1017 8.47867C14.2913 7.54487 14.4177 6.48946 14.4809 5.31241C14.5441 4.13536 14.5441 2.84061 14.4809 1.42815C12.9957 1.39676 11.6645 1.41638 10.4874 1.487C9.31029 1.55763 8.27143 1.6871 7.37081 1.87543C6.4702 2.06376 5.69599 2.30309 5.04818 2.59343C4.40037 2.88377 3.87106 3.2408 3.46025 3.66454C2.79664 4.33938 2.29104 5.05346 1.94343 5.80677C1.59582 6.56008 1.42202 7.32908 1.42202 8.11378C1.42202 8.86709 1.58397 9.65571 1.90788 10.4796C2.23178 11.3036 2.63074 11.9667 3.10475 12.4689C3.94216 10.9308 4.94548 9.54978 6.11469 8.32565C7.28391 7.10152 8.52423 6.13634 9.83565 5.43011C8.46103 6.60716 7.34711 7.8823 6.4939 9.25552C5.64069 10.6287 5.02448 12.1314 4.64527 13.7636Z"/>
</svg>
