<svg width="16" height="14" viewBox="0 0 16 14" xmlns="http://www.w3.org/2000/svg">
  <path d="M10.1818 0H3.63636C3.03273 0 2.51636 0.35 2.29818 0.854L0.101818 5.789C0.0363636 5.95 0 6.118 0 6.3V7.7C0 8.47 0.654545 9.1 1.45455 9.1H6.04364L5.35273 12.299L5.33091 12.523C5.33091 12.81 5.45455 13.076 5.65091 13.265L6.42182 14L11.2145 9.387C11.4764 9.135 11.6364 8.785 11.6364 8.4V1.4C11.6364 0.63 10.9818 0 10.1818 0ZM10.1818 8.4L7.02545 11.438L8 7.7H1.45455V6.3L3.63636 1.4H10.1818V8.4ZM13.0909 0H16V8.4H13.0909V0Z"/>
</svg>
