<svg width="16" height="14" viewBox="0 0 16 14" xmlns="http://www.w3.org/2000/svg">
  <path d="M5.81818 14H12.3636C12.9673 14 13.4836 13.65 13.7018 13.146L15.8982 8.211C15.9636 8.05 16 7.882 16 7.7V6.3C16 5.53 15.3455 4.9 14.5455 4.9H9.95636L10.6473 1.701L10.6691 1.477C10.6691 1.19 10.5455 0.924 10.3491 0.735L9.57818 0L4.78545 4.613C4.52364 4.865 4.36364 5.215 4.36364 5.6V12.6C4.36364 13.37 5.01818 14 5.81818 14ZM5.81818 5.6L8.97455 2.562L8 6.3H14.5455V7.7L12.3636 12.6H5.81818V5.6ZM0 5.6H2.90909V14H0V5.6Z"/>
</svg>
