<svg width="16" height="16" viewBox="0 0 16 16" xmlns="http://www.w3.org/2000/svg">
  <path d="M3.91111 14.5455H6.75556C6.75556 15.3455 6.11556 16 5.33333 16C4.55111 16 3.91111 15.3455 3.91111 14.5455ZM2.48889 13.8182H8.17778V12.3636H2.48889V13.8182ZM10.6667 6.90909C10.6667 9.68727 8.77511 11.1709 7.98578 11.6364H2.68089C1.89156 11.1709 0 9.68727 0 6.90909C0 3.89818 2.38933 1.45455 5.33333 1.45455C8.27733 1.45455 10.6667 3.89818 10.6667 6.90909ZM9.24444 6.90909C9.24444 4.70545 7.488 2.90909 5.33333 2.90909C3.17867 2.90909 1.42222 4.70545 1.42222 6.90909C1.42222 8.70545 2.48178 9.73818 3.09333 10.1818H7.57333C8.18489 9.73818 9.24444 8.70545 9.24444 6.90909ZM14.1298 5.36L13.1556 5.81818L14.1298 6.27636L14.5778 7.27273L15.0258 6.27636L16 5.81818L15.0258 5.36L14.5778 4.36364L14.1298 5.36ZM12.4444 4.36364L13.1129 2.86545L14.5778 2.18182L13.1129 1.49818L12.4444 0L11.776 1.49818L10.3111 2.18182L11.776 2.86545L12.4444 4.36364Z"/>
</svg>
