<svg width="17" height="13" viewBox="0 0 17 13" xmlns="http://www.w3.org/2000/svg">
  <path d="M16.5 1.5381C15.9111 1.79911 15.2792 1.97613 14.6153 2.05516C15.2932 1.64911 15.8121 1.00508 16.0581 0.240011C15.4222 0.616032 14.7203 0.889071 13.9724 1.03708C13.3736 0.39804 12.5217 0 11.5769 0C9.76423 0 8.2945 1.47011 8.2945 3.28225C8.2945 3.53926 8.32349 3.79028 8.37949 4.03032C5.65201 3.89329 3.23347 2.5862 1.61477 0.600027C1.33182 1.08408 1.17085 1.64809 1.17085 2.25016C1.17085 3.38926 1.75075 4.39433 2.63059 4.98236C2.09268 4.96437 1.58677 4.81635 1.14387 4.57033V4.61133C1.14387 6.20145 2.27566 7.52855 3.77637 7.83059C3.50142 7.90459 3.21148 7.9456 2.91153 7.9456C2.69959 7.9456 2.49462 7.9246 2.29365 7.88459C2.71156 9.18969 3.92335 10.1387 5.35909 10.1648C4.23629 11.0448 2.82055 11.5679 1.28285 11.5679C1.01791 11.5679 0.756942 11.5519 0.5 11.5229C1.95273 12.456 3.67742 13 5.53107 13C11.5689 13 14.8693 7.99761 14.8693 3.65929L14.8583 3.23426C15.5032 2.77419 16.0611 2.19616 16.5 1.5381Z"/>
</svg>
