<svg width="16" height="14" viewBox="0 0 16 14" xmlns="http://www.w3.org/2000/svg">
  <path d="M8 2.5953C10.7564 2.5953 13.2145 4.15248 14.4145 6.61619C13.9855 7.50809 13.3818 8.27572 12.6618 8.89713L13.6873 9.92794C14.6982 9.02872 15.4982 7.90287 16 6.61619C14.7418 3.40679 11.6364 1.13316 8 1.13316C7.07636 1.13316 6.18909 1.27937 5.35273 1.54987L6.55273 2.75614C7.02545 2.6611 7.50545 2.5953 8 2.5953ZM7.22182 3.42872L8.72727 4.94204C9.14182 5.1248 9.47636 5.4611 9.65818 5.87781L11.1636 7.39112C11.2218 7.14256 11.2655 6.87937 11.2655 6.60888C11.2727 4.79582 9.80364 3.32637 8 3.32637C7.73091 3.32637 7.47636 3.36292 7.22182 3.42872ZM0.734545 1.03812L2.68364 2.99739C1.49818 3.93316 0.56 5.17598 0 6.61619C1.25818 9.82559 4.36364 12.0992 8 12.0992C9.10545 12.0992 10.1673 11.8872 11.1418 11.4997L13.6291 14L14.6545 12.9692L1.76 0L0.734545 1.03812ZM6.18909 6.52115L8.08727 8.42924C8.05818 8.43655 8.02909 8.44386 8 8.44386C6.99636 8.44386 6.18182 7.62507 6.18182 6.61619C6.18182 6.57963 6.18909 6.5577 6.18909 6.52115ZM3.71636 4.03551L4.98909 5.31488C4.82182 5.71697 4.72727 6.15561 4.72727 6.61619C4.72727 8.42924 6.19636 9.90601 8 9.90601C8.45818 9.90601 8.89455 9.81097 9.28727 9.64282L10 10.3593C9.36 10.5347 8.69091 10.6371 8 10.6371C5.24364 10.6371 2.78545 9.0799 1.58545 6.61619C2.09455 5.57076 2.83636 4.70809 3.71636 4.03551Z"/>
</svg>
