<svg width="16" height="12" viewBox="0 0 16 12" xmlns="http://www.w3.org/2000/svg">
  <path d="M8.00991 12H7.99392C7.94436 12 2.98606 11.9897 1.73509 11.6257C1.0472 11.4272 0.50998 10.8513 0.325054 10.1142C0.100102 8.75452 -0.00852595 7.37569 0.00052182 5.99486C-0.00529007 4.61177 0.106277 3.23098 0.333847 1.86954C0.523856 1.13175 1.05871 0.553197 1.74548 0.342564C2.96208 0 7.7837 0 7.98833 0H8.00511C8.05547 0 13.0266 0.0102769 14.2647 0.374251C14.9512 0.573802 15.4873 1.14853 15.6732 1.8841C15.9053 3.24882 16.0142 4.63432 15.9985 6.02141C16.0041 7.40282 15.8923 8.78191 15.6644 10.1416C15.4771 10.8778 14.9395 11.4524 14.252 11.6514C13.037 11.9966 8.21454 12 8.00991 12ZM6.41123 3.42992L6.40723 8.56837L10.5734 5.99914L6.41123 3.42992Z"/>
</svg>
