<svg width="92" height="38" viewBox="0 0 92 38" fill="#fff" xmlns="http://www.w3.org/2000/svg">
  <path d="M3.7399 32.7601C2.44648 32.3767 1.886 32.1211 1.886 31.3969C1.886 30.7578 2.74828 30.5022 3.48122 30.5022C4.12793 30.5022 4.81776 30.7152 5.29201 31.0134C5.42135 31.0986 5.5507 31.0986 5.68004 31.056C5.80938 31.0134 5.93872 30.9282 5.98184 30.8004L6.19741 30.3744C6.28364 30.1614 6.24052 29.9058 6.02495 29.778C5.33513 29.352 4.38662 29.0538 3.48122 29.0538C1.62731 29.0538 0.377004 29.991 0.377004 31.3969C0.377004 33.2287 1.92911 33.6547 3.17942 34.0381C4.47284 34.4215 5.03333 34.6771 5.03333 35.4439C5.03333 36.2108 4.12793 36.509 3.26565 36.509C2.44648 36.509 1.54109 36.0829 1.02372 35.5717C0.980602 35.5291 0.851259 35.4865 0.678803 35.4865C0.549461 35.4865 0.420118 35.5717 0.33389 35.6995L0.0752054 36.1255C-0.054137 36.296 -0.0110229 36.5516 0.161434 36.6794C0.980602 37.4462 2.1878 37.9574 3.30876 37.9574C5.2489 37.9574 6.54232 36.9776 6.54232 35.4865C6.58544 33.6121 5.03333 33.1435 3.7399 32.7601Z" fill="#fff"/>
  <path d="M10.207 34.2937L11.5866 31.2691L12.9663 34.2937H10.207ZM12.2765 29.4372C12.1902 29.2668 12.0178 29.1816 11.8453 29.1816H11.3279C11.1555 29.1816 10.983 29.3094 10.8968 29.4372L7.27522 37.3184C7.189 37.4462 7.23211 37.6166 7.31834 37.7444C7.40457 37.8722 7.53391 37.9574 7.70636 37.9574H8.22373C8.39619 37.9574 8.56865 37.8722 8.65487 37.7018L9.56027 35.7421H13.613L14.5184 37.7018C14.6046 37.8722 14.7771 37.9574 14.9495 37.9574H15.4669C15.6394 37.9574 15.7687 37.8722 15.8549 37.7444C15.9412 37.6166 15.9412 37.4462 15.898 37.3184L12.2765 29.4372Z" fill="#fff"/>
  <path d="M18.3124 29.139H17.8382C17.5795 29.139 17.3639 29.352 17.3639 29.6076V37.4888C17.3639 37.7444 17.5795 37.9574 17.8382 37.9574H18.3124C18.5711 37.9574 18.7867 37.7444 18.7867 37.4888V29.6076C18.7867 29.352 18.5711 29.139 18.3124 29.139Z" fill="#fff"/>
  <path d="M28.2287 29.139H27.7975C27.5389 29.139 27.3233 29.352 27.3233 29.6076V35.3587L22.8394 29.352C22.7532 29.2242 22.6238 29.1816 22.4514 29.1816H21.8909C21.6322 29.1816 21.4167 29.3946 21.4167 29.6502V37.5314C21.4167 37.787 21.6322 38 21.8909 38H22.3652C22.6238 38 22.8394 37.787 22.8394 37.5314V31.7377L27.2802 37.7444C27.3664 37.8722 27.4957 37.9148 27.6682 37.9148H28.2287C28.4874 37.9148 28.7029 37.7018 28.7029 37.4462V29.6076C28.7029 29.352 28.4874 29.139 28.2287 29.139Z" fill="#fff"/>
  <path d="M36.4635 29.139H30.6C30.3413 29.139 30.1258 29.352 30.1258 29.6076V30.0762C30.1258 30.3318 30.3413 30.5448 30.6 30.5448H32.7988V37.4888C32.7988 37.7444 33.0144 37.9574 33.2731 37.9574H33.7474C34.006 37.9574 34.2216 37.7444 34.2216 37.4888V30.5448H36.4204C36.6791 30.5448 36.8947 30.3318 36.8947 30.0762V29.6076C36.9378 29.352 36.7222 29.139 36.4635 29.139Z" fill="#fff"/>
  <path d="M39.9558 33.4417H37.412C37.1533 33.4417 36.9378 33.6547 36.9378 33.9103V34.2937C36.9378 34.5493 37.1533 34.7623 37.412 34.7623H39.9558C40.2144 34.7623 40.43 34.5493 40.43 34.2937V33.9103C40.43 33.6547 40.2144 33.4417 39.9558 33.4417Z" fill="#fff"/>
  <path d="M49.872 33.1435H49.4408H48.0181C47.7594 33.1435 47.5438 33.3565 47.5438 33.6121V34.0807C47.5438 34.3363 47.7594 34.5493 48.0181 34.5493H48.9666V35.9978C48.4061 36.3812 47.7594 36.5942 47.0695 36.5942C45.3019 36.5942 43.8791 35.2309 43.8791 33.5695C43.8791 31.9081 45.3019 30.5448 47.0695 30.5448C47.8887 30.5448 48.7079 30.843 49.2684 31.3543C49.3546 31.4395 49.4839 31.4821 49.6133 31.4821C49.7426 31.4821 49.872 31.3969 49.9582 31.3117L50.26 30.9708C50.4324 30.7578 50.3893 30.5022 50.2169 30.3318C49.3546 29.6076 48.2336 29.1816 47.1127 29.1816C44.5689 29.1816 42.4995 31.1413 42.4995 33.5695C42.4995 35.9978 44.5689 38 47.0695 38C48.2336 38 49.3546 37.574 50.2169 36.8498C50.3031 36.7646 50.3893 36.6368 50.3893 36.509V33.6547C50.3462 33.3565 50.1306 33.1435 49.872 33.1435Z" fill="#fff"/>
  <path d="M56.5546 36.5942C54.8301 36.5942 53.4073 35.2309 53.4073 33.5695C53.4073 31.9081 54.8301 30.5448 56.5546 30.5448C58.2792 30.5448 59.702 31.9081 59.702 33.5695C59.702 35.2309 58.2792 36.5942 56.5546 36.5942ZM56.5546 29.139C54.0109 29.139 51.9414 31.0986 51.9414 33.5269C51.9414 35.9551 54.0109 37.9574 56.5546 37.9574C59.0984 37.9574 61.1679 35.9551 61.1679 33.5269C61.1247 31.0986 59.0984 29.139 56.5546 29.139Z" fill="#fff"/>
  <path d="M64.1859 34.1233H66.4709C67.2039 34.1233 68.4111 34.2937 68.4111 35.3161C68.4111 36.3386 67.3332 36.5516 66.4709 36.5516H64.1859V34.1233ZM66.4709 32.7175H64.1859V30.5448H66.4709C67.1607 30.5448 68.023 30.7152 68.023 31.6099C68.023 32.3341 67.5057 32.7175 66.4709 32.7175ZM68.6697 33.3139C69.144 32.8879 69.4027 32.2915 69.4027 31.5673C69.4027 30.0762 68.2817 29.139 66.4278 29.139H63.1511C62.8925 29.139 62.6769 29.352 62.6769 29.6076V37.4888C62.6769 37.7444 62.8925 37.9574 63.1511 37.9574H66.4278C68.4973 37.9574 69.7476 36.9776 69.7476 35.3587C69.8338 34.4641 69.4027 33.7399 68.6697 33.3139Z" fill="#fff"/>
  <path d="M73.5416 34.2937L74.9213 31.2691L76.3009 34.2937H73.5416ZM75.6111 29.4372C75.5249 29.2668 75.3524 29.1816 75.18 29.1816H74.6626C74.4901 29.1816 74.3177 29.3094 74.2315 29.4372L70.6099 37.3184C70.5236 37.4462 70.5668 37.6166 70.653 37.7444C70.7392 37.8722 70.8686 37.9574 71.041 37.9574H71.5584C71.7308 37.9574 71.9033 37.8722 71.9895 37.7018L72.8949 35.7421H76.9476L77.853 37.7018C77.9393 37.8722 78.1117 37.9574 78.2842 37.9574H78.8015C78.974 37.9574 79.1033 37.8722 79.1896 37.7444C79.2758 37.6166 79.2758 37.4462 79.2327 37.3184L75.6111 29.4372Z" fill="#fff"/>
  <path d="M81.647 29.139H81.1728C80.9141 29.139 80.6985 29.352 80.6985 29.6076V37.4888C80.6985 37.7444 80.9141 37.9574 81.1728 37.9574H81.647C81.9057 37.9574 82.1213 37.7444 82.1213 37.4888V29.6076C82.1213 29.352 81.9057 29.139 81.647 29.139Z" fill="#fff"/>
  <path d="M91.5634 29.139H91.0891C90.8305 29.139 90.6149 29.352 90.6149 29.6076V35.3587L86.131 29.352C86.0448 29.2242 85.9155 29.1816 85.743 29.1816H85.1825C84.9238 29.1816 84.7083 29.3946 84.7083 29.6502V37.5314C84.7083 37.787 84.9238 38 85.1825 38H85.6568C85.9155 38 86.131 37.787 86.131 37.5314V31.7377L90.5718 37.7444C90.658 37.8722 90.7873 37.9148 90.9598 37.9148H91.5203C91.779 37.9148 91.9945 37.7018 91.9945 37.4462V29.6076C92.0377 29.352 91.8221 29.139 91.5634 29.139Z" fill="#fff"/>
  <path d="M50.3032 15.7197L51.726 16.7847V24.5381H50.3032V15.7197ZM55.9511 0.213004L49.096 7.11435C48.9667 7.24215 48.8804 7.41255 48.8804 7.62556V12.9081L46.078 10.8206C45.8193 10.6502 45.4313 10.6502 45.2157 10.8206L38.7917 15.8901C38.6193 16.0179 38.5331 16.2309 38.5331 16.4439V24.5381H37.0672V20.065C37.0672 18.4888 35.9893 16.8273 33.963 16.8273C31.9366 16.8273 30.8587 18.4888 30.8587 20.065V24.4955H29.3929V21.4708C29.3929 20.2354 28.5306 18.9574 26.9785 18.9574C25.3832 18.9574 24.5641 20.278 24.5641 21.4708V24.4955H23.0551V24.4103C23.0551 23.8139 23.0551 23.0045 23.0551 22.7063C23.0551 21.6838 22.0635 20.7466 20.9425 20.7466C19.8215 20.7466 18.8299 21.6412 18.8299 22.7063V24.5381H12.449C12.061 24.5381 11.7161 24.8363 11.7161 25.2623C11.7161 25.4327 11.8023 25.6457 11.9317 25.7735C12.061 25.9013 12.2334 25.9865 12.449 25.9865H19.5628C19.7353 25.9865 19.9509 25.9013 20.0802 25.7735C20.2096 25.6457 20.2958 25.4753 20.2958 25.2623V22.8341C20.2958 22.5785 20.5976 22.1951 20.9856 22.1951C21.3736 22.1951 21.6754 22.5359 21.6754 22.8767C21.6754 23.0471 21.6754 25.2623 21.6754 25.2623C21.6754 25.6457 22.0203 25.9865 22.4084 25.9865H25.297C25.685 25.9865 26.03 25.6883 26.03 25.2623V21.5134C26.03 21.13 26.2455 20.4058 27.0216 20.4058C27.7976 20.4058 28.0132 21.13 28.0132 21.5134V25.2623C28.0132 25.6457 28.315 25.9865 28.7461 25.9865H31.6348C31.8073 25.9865 32.0228 25.9013 32.1522 25.7735C32.2815 25.6457 32.3677 25.4753 32.3677 25.2623V20.1076C32.3677 19.4686 32.7126 18.2758 34.0492 18.2758C35.2564 18.2758 35.7306 19.3408 35.7306 20.065V25.2623C35.7306 25.6457 36.0324 25.9865 36.4636 25.9865H39.3522C39.7402 25.9865 40.0852 25.6883 40.0852 25.2623V16.7847L40.1283 16.7421L45.7762 12.2691L49.0098 14.6547V25.2623C49.0098 25.6457 49.3116 25.9865 49.7427 25.9865H52.6314C53.0194 25.9865 53.3643 25.6883 53.3643 25.2623V16.4439C53.3643 16.2309 53.235 16.0179 53.0625 15.8901L50.4757 13.9731V7.88116L50.5188 7.83856L55.908 2.42825V25.2623C55.908 25.6457 56.2098 25.9865 56.641 25.9865H59.5296C59.9176 25.9865 60.2626 25.6883 60.2626 25.2623V10.3946H61.3404L61.3835 10.4372L65.0482 13.8453V25.2623C65.0482 25.6457 65.35 25.9865 65.7812 25.9865H68.7129C69.1009 25.9865 69.4459 25.6883 69.4459 25.2623V21.8116L73.4555 25.7309C73.5848 25.8587 73.7573 25.9439 73.9728 25.9439H79.9226C80.3106 25.9439 80.6555 25.6457 80.6555 25.2197C80.6555 24.8363 80.3537 24.4955 79.9226 24.4955H74.2315L74.1884 24.4529L69.1872 19.5964C68.9716 19.3834 68.6698 19.3408 68.4111 19.426C68.1524 19.5538 67.98 19.8094 67.98 20.065V24.4955H66.5141V13.5471C66.5141 13.3341 66.4279 13.1637 66.2985 13.0359L62.1596 9.15919C62.0302 9.03139 61.8578 8.94618 61.6853 8.94618H59.6158C59.2278 8.94618 58.8829 9.24439 58.8829 9.6704V24.5381H57.417V0.681614C57.417 0.383408 57.2446 0.127803 56.9859 0.0426009C56.8997 9.52204e-09 56.8134 0 56.7272 0C56.253 0 56.0805 0.0852018 55.9511 0.213004Z" fill="url(#saint-gobain-svg-logo)"/>
  <defs>
    <linearGradient id="saint-gobain-svg-logo" x1="11.6915" y1="12.9751" x2="80.4319" y2="12.9751" gradientUnits="userSpaceOnUse">
      <stop stop-color="#fff"/>
      <stop offset="0.1" stop-color="#fff"/>
      <stop offset="0.3" stop-color="#fff"/>
      <stop offset="0.42" stop-color="#fff"/>
      <stop offset="0.55" stop-color="#fff"/>
      <stop offset="0.84" stop-color="#fff"/>
      <stop offset="1" stop-color="#fff"/>
    </linearGradient>
  </defs>
</svg>
