<?xml version="1.0" standalone="no"?>
<!DOCTYPE svg PUBLIC "-//W3C//DTD SVG 20010904//EN"
 "http://www.w3.org/TR/2001/REC-SVG-20010904/DTD/svg10.dtd">
<svg version="1.0" xmlns="http://www.w3.org/2000/svg"
 width="300.000000pt" height="126.000000pt" viewBox="0 0 300.000000 126.000000"
 preserveAspectRatio="xMidYMid meet">

<g transform="translate(0.000000,126.000000) scale(0.100000,-0.100000)"
fill="#0079c2" stroke="none">
<path d="M416 1168 c-24 -51 -125 -259 -225 -462 -100 -203 -181 -373 -181
-377 0 -5 549 -8 1265 -7 l1265 3 225 459 c124 253 225 463 225 468 0 4 -570
8 -1266 8 l-1265 0 -43 -92z m257 -293 c15 -143 12 -142 74 -22 54 104 57 107
90 107 18 0 33 -5 33 -10 0 -6 -36 -82 -80 -170 l-80 -160 -39 0 -40 0 -6 58
c-3 31 -9 79 -13 105 l-7 49 -49 -106 -49 -106 -43 0 -44 0 85 171 86 170 37
-3 37 -3 8 -80z m545 64 c2 -9 -30 -83 -71 -165 l-73 -149 -132 -3 c-107 -2
-133 0 -138 12 -6 16 139 312 158 319 7 3 67 5 133 4 101 -2 120 -4 123 -18z
m352 6 c10 -12 6 -29 -25 -92 -45 -95 -60 -113 -97 -113 -27 0 -29 -2 -24 -30
3 -16 9 -43 12 -60 5 -29 5 -30 -34 -30 l-40 0 -7 60 c-7 58 -8 60 -36 60 -25
0 -33 -8 -59 -60 -29 -58 -31 -60 -70 -60 l-40 0 85 170 85 170 119 0 c93 0
121 -3 131 -15z m320 1 c0 -38 -12 -46 -66 -46 l-54 0 -70 -140 -70 -140 -36
0 c-20 0 -34 3 -32 8 37 75 128 265 128 268 0 2 -20 4 -45 4 -50 0 -49 -1 -33
35 11 25 11 25 145 25 108 0 133 -3 133 -14z m296 -1 c4 -9 -27 -84 -69 -170
l-76 -155 -131 0 c-98 0 -132 3 -136 13 -6 18 132 304 154 316 9 6 70 11 135
11 96 0 119 -3 123 -15z m168 -27 c3 -24 9 -72 13 -108 l8 -65 55 105 c51 98
57 105 88 108 18 2 32 -1 32 -7 0 -6 -36 -83 -80 -171 l-80 -160 -39 0 -39 0
-7 100 c-4 55 -11 100 -14 100 -4 0 -29 -45 -56 -100 l-49 -100 -38 0 c-21 0
-38 2 -38 5 0 3 37 79 82 170 l83 165 37 0 c36 0 37 -1 42 -42z"/>
<path d="M950 790 c-56 -112 -56 -113 26 -108 l49 3 47 90 c26 50 47 96 48
103 0 8 -18 12 -60 12 l-60 0 -50 -100z"/>
<path d="M1340 850 c-11 -21 -20 -42 -20 -45 0 -3 27 -5 59 -5 57 0 60 2 80
34 32 51 28 56 -39 56 -59 0 -60 0 -80 -40z"/>
<path d="M1962 878 c-18 -23 -90 -183 -85 -190 2 -5 29 -8 58 -8 l55 0 50 100
c27 55 50 102 50 105 0 11 -118 4 -128 -7z"/>
<path d="M1162 228 c-22 -22 -13 -48 23 -69 38 -23 42 -31 21 -48 -11 -9 -18
-8 -30 4 -9 9 -21 15 -28 13 -15 -5 26 -48 46 -48 21 0 46 28 46 51 0 12 -14
28 -35 40 -19 12 -35 25 -35 30 0 15 33 24 38 11 2 -7 10 -12 18 -12 12 0 12
4 4 20 -12 22 -49 27 -68 8z"/>
<path d="M1277 169 c-28 -73 -29 -100 -1 -61 20 28 57 28 77 0 8 -13 18 -20
21 -17 8 7 -47 142 -60 146 -5 2 -22 -29 -37 -68z m53 -6 c0 -7 -9 -13 -20
-13 -17 0 -18 3 -8 25 8 19 14 22 20 13 4 -7 8 -19 8 -25z"/>
<path d="M1400 165 c0 -60 3 -75 15 -75 12 0 15 15 15 75 0 60 -3 75 -15 75
-12 0 -15 -15 -15 -75z"/>
<path d="M1460 165 c0 -43 4 -75 10 -75 6 0 10 20 10 45 0 25 3 45 8 45 4 0
18 -20 32 -45 37 -67 50 -59 50 30 0 85 -17 103 -22 23 l-3 -52 -32 52 c-18
29 -37 52 -43 52 -6 0 -10 -30 -10 -75z"/>
<path d="M1590 231 c0 -5 10 -11 22 -13 20 -3 22 -8 19 -65 -2 -52 0 -63 13
-63 13 0 16 13 16 65 0 58 2 65 20 65 11 0 20 5 20 10 0 6 -25 10 -55 10 -30
0 -55 -4 -55 -9z"/>
<path d="M1795 215 c-27 -26 -31 -51 -14 -88 11 -24 47 -47 73 -47 22 0 66 40
66 61 0 16 -7 19 -45 19 -25 0 -45 -4 -45 -10 0 -5 14 -10 30 -10 35 0 39 -14
9 -30 -16 -9 -26 -8 -44 4 -65 42 -17 132 51 95 30 -16 44 -4 18 16 -29 22
-72 18 -99 -10z"/>
<path d="M1965 215 c-14 -13 -25 -36 -25 -50 0 -30 49 -85 75 -85 24 0 72 27
79 45 21 55 -18 115 -74 115 -19 0 -40 -9 -55 -25z m95 -15 c27 -27 25 -55 -6
-79 -34 -27 -40 -26 -70 4 -18 19 -23 31 -19 48 15 47 61 61 95 27z"/>
<path d="M2120 164 l0 -75 41 3 c49 4 71 27 52 57 -6 10 -9 28 -6 40 8 30 -14
51 -53 51 l-34 0 0 -76z m65 36 c0 -8 -10 -16 -22 -18 -18 -3 -23 2 -23 18 0
16 5 21 23 18 12 -2 22 -10 22 -18z m2 -51 c17 -17 4 -39 -23 -39 -19 0 -24 5
-24 25 0 27 26 35 47 14z"/>
<path d="M2257 169 c-28 -73 -29 -100 -1 -61 20 28 57 28 77 0 8 -13 17 -21
20 -18 7 7 -47 143 -58 147 -6 2 -23 -29 -38 -68z m50 -15 c-3 -3 -12 -4 -20
-2 -11 2 -12 9 -5 28 l10 25 11 -23 c5 -12 8 -25 4 -28z"/>
<path d="M2380 165 c0 -60 3 -75 15 -75 12 0 15 15 15 75 0 60 -3 75 -15 75
-12 0 -15 -15 -15 -75z"/>
<path d="M2440 165 c0 -43 4 -75 10 -75 6 0 10 20 10 45 0 25 3 45 8 45 4 0
18 -20 32 -45 37 -67 50 -59 50 30 0 85 -17 103 -22 23 l-3 -53 -32 53 c-18
28 -37 52 -43 52 -6 0 -10 -31 -10 -75z"/>
<path d="M1690 150 c0 -5 11 -10 25 -10 14 0 25 5 25 10 0 6 -11 10 -25 10
-14 0 -25 -4 -25 -10z"/>
<path d="M642 13 c355 -2 940 -2 1300 0 359 1 68 2 -647 2 -715 0 -1009 -1
-653 -2z"/>
</g>
</svg>
